<svg xmlns="http://www.w3.org/2000/svg" xmlns:xlink="http://www.w3.org/1999/xlink" viewBox="0 0 4096 4096"><defs><style>.cls-1{fill:url(#Degradado_sin_nombre_26);}</style><linearGradient id="Degradado_sin_nombre_26" x1="305.67" y1="3090.04" x2="4141.7" y2="116.14" gradientUnits="userSpaceOnUse"><stop offset="0.13" stop-color="#8e2de2"/><stop offset="0.35" stop-color="#8a27e2"/><stop offset="0.65" stop-color="#7f17e1"/><stop offset="0.94" stop-color="#7000e0"/></linearGradient></defs><title>Codeli</title><g id="Capa_1_copia" data-name="Capa 1 copia"><path class="cls-1" d="M3667.23,556,2166.76,67.8a383.26,383.26,0,0,0-237.14,0L429.4,555.89a124.82,124.82,0,0,0-85.6,131L453.05,1789.64V1509.59q0-269.25,18.57-403.92T582.25,846.39q92-124.64,255.3-196.19t375.21-71.55q287.79,0,475,110.64t246,275.85q58.79,165.18,58.8,514v236.66H1343.48v-433q0-188.83-20.56-235.7t-90.61-46.83q-79.21,0-100.52,56.93t-21.32,246.2V2460.54q0,181.59,21.32,237t96,55.39q71.57,0,93.66-55.51t22.08-260.7V2123.55h649.11v97.09q0,386.79-54.93,548.59t-242.92,283.56q-188,121.73-463.41,121.73-286.27,0-471.92-103.1-128.88-71.53-197.33-181.34l1.07,10.88A329.78,329.78,0,0,0,671.21,3114l1283.2,847.73a170.6,170.6,0,0,0,187.72.24l1283.79-843.36A345.83,345.83,0,0,0,3518.28,2985q-64,61.7-165.31,110.27-179.05,85.82-416.73,85.81-260.85,0-445.28-98.95t-241.54-252q-57.14-153.08-57.11-434.46V2231.74H2799.8v304.58q0,140.71,25.47,180.9t90.29,40.2q64.82,0,96.46-51t31.64-151.52q0-221.09-60.19-289.13-61.75-68-304.06-227.28-242.32-160.79-321-233.46T2228,1604q-51.74-128.33-51.71-327.78,0-287.58,73.32-420.55t236.91-207.95q163.59-75,395.12-75,253.11,0,431.39,82t236.15,206.4Q3607,985.58,3607,1284v99h-607.5V1197.38q0-129.89-23.15-165.44t-77.17-35.56q-58.66,0-88.75,48t-30.09,145.43q0,125.31,33.83,188.75,32.29,63.45,183.62,153,433.88,258,546.54,423.4,44,64.56,70.69,160.09L3752.86,686.66A124.82,124.82,0,0,0,3667.23,556Z"/></g></svg>