<svg width="250" height="294" viewBox="0 0 250 294" fill="none" xmlns="http://www.w3.org/2000/svg">
<path d="M125 0C130.604 0 135.24 4.1544 135.995 9.55055V24.0471H136.103V264.661C149.134 257.791 168.438 246.084 185.997 229.501C208.647 208.11 227.795 179.202 227.795 142.523V59.2974C219.719 51.1104 193.827 27.8198 146.657 22.5829V0.671074C213.209 7.83343 245.506 45.4802 247.448 47.8272C249.096 49.8146 250 52.3214 250 54.9093V142.523C250 190.425 223.295 226.338 195.599 250.692C169.063 274.024 140.913 287.399 132.012 291.313C130.1 292.871 127.654 293.807 125 293.807C119.396 293.807 114.76 289.652 114.005 284.256V259.27H113.897V22.5434C60.9761 25.7758 30.84 51.4647 22.2051 60.0104V143.697C22.2051 175.199 35.8684 200.697 54.0711 220.77C69.3852 237.658 87.7502 250.508 103.343 259.529V284.685C102.759 284.493 102.183 284.248 101.62 283.951C86.5381 275.988 61.3097 260.625 39.7747 237.548C18.2 214.428 0 183.182 0 143.705V55.6189C0 53.0096 0.916355 50.5423 2.50018 48.5897L2.52145 48.5634L2.54299 48.5374C4.76628 45.852 43.9018 0 125 0Z" fill="#9575CD" style="fill:#9575CD;fill:color(display-p3 0.5843 0.4588 0.8039);fill-opacity:1;"/>
</svg>
