<svg width="110" height="120" viewBox="0 0 110 120" fill="none" xmlns="http://www.w3.org/2000/svg">
<path d="M93.0513 25.6181L65.75 9.85566L65.5582 9.74492C63.7712 8.71297 62.1034 7.74981 60.6092 7.07297C58.9515 6.32204 57.1273 5.7376 55 5.7376C52.8727 5.7376 51.0485 6.32204 49.3908 7.07297C47.8966 7.74981 46.2288 8.71297 44.4418 9.74492L44.25 9.85566L16.9487 25.6181C16.8847 25.6551 16.8207 25.692 16.7569 25.7288C14.9698 26.7604 13.3017 27.7232 11.9685 28.6788C10.4893 29.7389 9.07104 31.0265 8.00739 32.8688C6.94373 34.7111 6.53776 36.5831 6.35923 38.3942C6.19832 40.0266 6.19851 41.9526 6.19872 44.0161C6.19872 44.0898 6.19873 44.1636 6.19873 44.2376V75.7624L6.19872 75.9839C6.19851 78.0474 6.19832 79.9734 6.35923 81.6058C6.53776 83.4169 6.94373 85.2889 8.00739 87.1312C9.07104 88.9735 10.4893 90.2611 11.9685 91.3212C13.3017 92.2768 14.9697 93.2396 16.7569 94.2712L16.9487 94.3819L44.25 110.144L44.4418 110.255C46.2288 111.287 47.8966 112.25 49.3908 112.927C51.0485 113.678 52.8727 114.262 55 114.262C57.1273 114.262 58.9515 113.678 60.6092 112.927C62.1034 112.25 63.7712 111.287 65.5582 110.255L65.75 110.144L93.0513 94.3819L93.2429 94.2713C95.0302 93.2397 96.6983 92.2768 98.0315 91.3212C99.5107 90.2611 100.929 88.9735 101.993 87.1312C103.056 85.2889 103.462 83.4169 103.641 81.6058C103.802 79.9734 103.801 78.0473 103.801 75.9838L103.801 75.7624V44.2376L103.801 44.0162C103.801 41.9527 103.802 40.0266 103.641 38.3942C103.462 36.5831 103.056 34.7111 101.993 32.8688C100.929 31.0265 99.5107 29.7389 98.0315 28.6788C96.6983 27.7232 95.0302 26.7603 93.2429 25.7287L93.0513 25.6181Z" stroke="url(#paint0_linear_4_102)" stroke-width="11" stroke-linejoin="round"/>
<circle cx="55" cy="60" r="16" fill="url(#paint1_linear_4_102)"/>
<defs>
<linearGradient id="paint0_linear_4_102" x1="25.5" y1="49" x2="74.5" y2="83.5" gradientUnits="userSpaceOnUse">
<stop stop-color="#8E2DE2"/>
<stop offset="1" stop-color="#7000E0"/>
</linearGradient>
<linearGradient id="paint1_linear_4_102" x1="47.5714" y1="55.4286" x2="66.4286" y2="68.5714" gradientUnits="userSpaceOnUse">
<stop stop-color="#8E2DE2"/>
<stop offset="1" stop-color="#7000E0"/>
</linearGradient>
</defs>
</svg>
